<svg version="1.1" xmlns="http://www.w3.org/2000/svg" xmlns:xlink="http://www.w3.org/1999/xlink" width="2058" height="1010"><defs/><g><rect fill="#FFFFFF" stroke="none" x="0" y="0" width="880" height="670"/><path fill="none" stroke="none"/><text fill="black" stroke="none" font-family="Raleway" font-size="14px" font-style="normal" font-weight="normal" text-decoration="normal" x="690" y="385" text-anchor="start" dominant-baseline="alphabetic">s</text><path fill="none" stroke="none"/><text fill="black" stroke="none" font-family="Raleway" font-size="14px" font-style="normal" font-weight="normal" text-decoration="normal" x="370" y="475" text-anchor="start" dominant-baseline="alphabetic">s</text><path fill="none" stroke="none"/><text fill="black" stroke="none" font-family="Raleway" font-size="14px" font-style="normal" font-weight="normal" text-decoration="normal" x="60" y="445" text-anchor="start" dominant-baseline="alphabetic">c</text><path fill="none" stroke="none"/><text fill="black" stroke="none" font-family="Raleway" font-size="14px" font-style="normal" font-weight="normal" text-decoration="normal" x="60" y="555" text-anchor="start" dominant-baseline="alphabetic">a</text><path fill="none" stroke="none"/><text fill="black" stroke="none" font-family="Raleway" font-size="14px" font-style="normal" font-weight="normal" text-decoration="normal" x="60" y="605" text-anchor="start" dominant-baseline="alphabetic">b</text><path fill="none" stroke="none"/><text fill="black" stroke="none" font-family="Raleway" font-size="14px" font-style="normal" font-weight="normal" text-decoration="normal" x="780" y="535" text-anchor="start" dominant-baseline="alphabetic">c_0</text><path fill="white" stroke="black" paint-order="fill stroke markers" d=" M 290 50 C 300 50 315 60 320 70 C 315 80 300 90 290 90 C 300 70 300 70 290 50 Z" stroke-miterlimit="10" stroke-width="3" stroke-dasharray=""/><path fill="none" stroke="black" paint-order="fill stroke markers" d=" M 280.19463130731185 50.27457514062631 A 25 25 0 0 1 280.19463130731185 90.72542485937369" stroke-miterlimit="10" stroke-width="3" stroke-dasharray=""/><path fill="white" stroke="black" paint-order="fill stroke markers" d=" M 280.5 100.5 L 290.5 100.5 L 290.5 100.5 A 20 20 0 0 1 290.5 140.5 L 280.5 140.5 L 280.5 100.5 Z" stroke-miterlimit="10" stroke-width="3" stroke-dasharray=""/><path fill="white" stroke="black" paint-order="fill stroke markers" d=" M 280.5 300.5 L 290.5 300.5 L 290.5 300.5 A 20 20 0 0 1 290.5 340.5 L 280.5 340.5 L 280.5 300.5 Z" stroke-miterlimit="10" stroke-width="3" stroke-dasharray=""/><path fill="white" stroke="black" paint-order="fill stroke markers" d=" M 280.5 200.5 L 290.5 200.5 L 290.5 200.5 A 20 20 0 0 1 290.5 240.5 L 280.5 240.5 L 280.5 200.5 Z" stroke-miterlimit="10" stroke-width="3" stroke-dasharray=""/><path fill="white" stroke="black" paint-order="fill stroke markers" d=" M 280.5 250.5 L 290.5 250.5 L 290.5 250.5 A 20 20 0 0 1 290.5 290.5 L 280.5 290.5 L 280.5 250.5 Z" stroke-miterlimit="10" stroke-width="3" stroke-dasharray=""/><path fill="white" stroke="black" paint-order="fill stroke markers" d=" M 200.5 580.5 L 210.5 580.5 L 210.5 580.5 A 20 20 0 0 1 210.5 620.5 L 200.5 620.5 L 200.5 580.5 Z" stroke-miterlimit="10" stroke-width="3" stroke-dasharray=""/><path fill="white" stroke="black" paint-order="fill stroke markers" d=" M 200.5 480.5 L 210.5 480.5 L 210.5 480.5 A 20 20 0 0 1 210.5 520.5 L 200.5 520.5 L 200.5 480.5 Z" stroke-miterlimit="10" stroke-width="3" stroke-dasharray=""/><path fill="white" stroke="black" paint-order="fill stroke markers" d=" M 200.5 530.5 L 210.5 530.5 L 210.5 530.5 A 20 20 0 0 1 210.5 570.5 L 200.5 570.5 L 200.5 530.5 Z" stroke-miterlimit="10" stroke-width="3" stroke-dasharray=""/><path fill="white" stroke="black" paint-order="fill stroke markers" d=" M 510.5 470.5 L 520.5 470.5 L 520.5 470.5 A 20 20 0 0 1 520.5 510.5 L 510.5 510.5 L 510.5 470.5 Z" stroke-miterlimit="10" stroke-width="3" stroke-dasharray=""/><path fill="white" stroke="black" paint-order="fill stroke markers" d=" M 510.5 370.5 L 520.5 370.5 L 520.5 370.5 A 20 20 0 0 1 520.5 410.5 L 510.5 410.5 L 510.5 370.5 Z" stroke-miterlimit="10" stroke-width="3" stroke-dasharray=""/><path fill="white" stroke="black" paint-order="fill stroke markers" d=" M 510.5 420.5 L 520.5 420.5 L 520.5 420.5 A 20 20 0 0 1 520.5 460.5 L 510.5 460.5 L 510.5 420.5 Z" stroke-miterlimit="10" stroke-width="3" stroke-dasharray=""/><path fill="white" stroke="black" paint-order="fill stroke markers" d=" M 360 220 C 370 220 385 230 390 240 C 385 250 370 260 360 260 C 370 240 370 240 360 220 Z" stroke-miterlimit="10" stroke-width="3" stroke-dasharray=""/><path fill="white" stroke="black" paint-order="fill stroke markers" d=" M 280 500 C 290 500 305 510 310 520 C 305 530 290 540 280 540 C 290 520 290 520 280 500 Z" stroke-miterlimit="10" stroke-width="3" stroke-dasharray=""/><path fill="white" stroke="black" paint-order="fill stroke markers" d=" M 590 390 C 600 390 615 400 620 410 C 615 420 600 430 590 430 C 600 410 600 410 590 390 Z" stroke-miterlimit="10" stroke-width="3" stroke-dasharray=""/><path fill="white" stroke="black" paint-order="fill stroke markers" d=" M 650 530 C 660 530 675 540 680 550 C 675 560 660 570 650 570 C 660 550 660 550 650 530 Z" stroke-miterlimit="10" stroke-width="3" stroke-dasharray=""/><path fill="white" stroke="black" paint-order="fill stroke markers" d=" M 250.5 200.5 L 270.5 210.5 L 250.5 220.5 Z" stroke-miterlimit="10" stroke-width="3" stroke-dasharray=""/><path fill="none" stroke="black" paint-order="fill stroke markers" d=" M 280 210 A 5 5 0 1 1 279.99999750000023 209.99500000083333" stroke-miterlimit="10" stroke-width="3" stroke-dasharray=""/><path fill="white" stroke="black" paint-order="fill stroke markers" d=" M 250.5 270.5 L 270.5 280.5 L 250.5 290.5 Z" stroke-miterlimit="10" stroke-width="3" stroke-dasharray=""/><path fill="none" stroke="black" paint-order="fill stroke markers" d=" M 280 280 A 5 5 0 1 1 279.99999750000023 279.99500000083333" stroke-miterlimit="10" stroke-width="3" stroke-dasharray=""/><path fill="white" stroke="black" paint-order="fill stroke markers" d=" M 170.5 480.5 L 190.5 490.5 L 170.5 500.5 Z" stroke-miterlimit="10" stroke-width="3" stroke-dasharray=""/><path fill="none" stroke="black" paint-order="fill stroke markers" d=" M 200 490 A 5 5 0 1 1 199.9999975000002 489.99500000083333" stroke-miterlimit="10" stroke-width="3" stroke-dasharray=""/><path fill="white" stroke="black" paint-order="fill stroke markers" d=" M 170.5 550.5 L 190.5 560.5 L 170.5 570.5 Z" stroke-miterlimit="10" stroke-width="3" stroke-dasharray=""/><path fill="none" stroke="black" paint-order="fill stroke markers" d=" M 200 560 A 5 5 0 1 1 199.9999975000002 559.9950000008333" stroke-miterlimit="10" stroke-width="3" stroke-dasharray=""/><path fill="white" stroke="black" paint-order="fill stroke markers" d=" M 480.5 370.5 L 500.5 380.5 L 480.5 390.5 Z" stroke-miterlimit="10" stroke-width="3" stroke-dasharray=""/><path fill="none" stroke="black" paint-order="fill stroke markers" d=" M 510 380 A 5 5 0 1 1 509.99999750000023 379.99500000083333" stroke-miterlimit="10" stroke-width="3" stroke-dasharray=""/><path fill="white" stroke="black" paint-order="fill stroke markers" d=" M 480.5 440.5 L 500.5 450.5 L 480.5 460.5 Z" stroke-miterlimit="10" stroke-width="3" stroke-dasharray=""/><path fill="none" stroke="black" paint-order="fill stroke markers" d=" M 510 450 A 5 5 0 1 1 509.99999750000023 449.99500000083333" stroke-miterlimit="10" stroke-width="3" stroke-dasharray=""/><path fill="white" stroke="black" paint-order="fill stroke markers" d=" M 160.5 60.5 L 180.5 60.5 L 180.5 80.5 L 160.5 80.5 L 160.5 60.5 Z" stroke-miterlimit="10" stroke-width="3" stroke-dasharray=""/><path fill="none" stroke="none"/><path fill="none" stroke="none"/><text fill="green" stroke="none" font-family="Raleway" font-size="20px" font-style="normal" font-weight="normal" text-decoration="normal" x="170" y="75" text-anchor="middle" dominant-baseline="alphabetic">0</text><path fill="white" stroke="black" paint-order="fill stroke markers" d=" M 160.5 110.5 L 180.5 110.5 L 180.5 130.5 L 160.5 130.5 L 160.5 110.5 Z" stroke-miterlimit="10" stroke-width="3" stroke-dasharray=""/><path fill="none" stroke="none"/><path fill="none" stroke="none"/><text fill="green" stroke="none" font-family="Raleway" font-size="20px" font-style="normal" font-weight="normal" text-decoration="normal" x="170" y="125" text-anchor="middle" dominant-baseline="alphabetic">0</text><path fill="white" stroke="black" paint-order="fill stroke markers" d=" M 160.5 260.5 L 180.5 260.5 L 180.5 280.5 L 160.5 280.5 L 160.5 260.5 Z" stroke-miterlimit="10" stroke-width="3" stroke-dasharray=""/><path fill="none" stroke="none"/><path fill="none" stroke="none"/><text fill="green" stroke="none" font-family="Raleway" font-size="20px" font-style="normal" font-weight="normal" text-decoration="normal" x="170" y="275" text-anchor="middle" dominant-baseline="alphabetic">1</text><path fill="white" stroke="black" paint-order="fill stroke markers" d=" M 160.5 310.5 L 180.5 310.5 L 180.5 330.5 L 160.5 330.5 L 160.5 310.5 Z" stroke-miterlimit="10" stroke-width="3" stroke-dasharray=""/><path fill="none" stroke="none"/><path fill="none" stroke="none"/><text fill="green" stroke="none" font-family="Raleway" font-size="20px" font-style="normal" font-weight="normal" text-decoration="normal" x="170" y="325" text-anchor="middle" dominant-baseline="alphabetic">1</text><path fill="white" stroke="black" paint-order="fill stroke markers" d=" M 80.5 540.5 L 100.5 540.5 L 100.5 560.5 L 80.5 560.5 L 80.5 540.5 Z" stroke-miterlimit="10" stroke-width="3" stroke-dasharray=""/><path fill="none" stroke="none"/><path fill="none" stroke="none"/><text fill="green" stroke="none" font-family="Raleway" font-size="20px" font-style="normal" font-weight="normal" text-decoration="normal" x="90" y="555" text-anchor="middle" dominant-baseline="alphabetic">0</text><path fill="white" stroke="black" paint-order="fill stroke markers" d=" M 80.5 590.5 L 100.5 590.5 L 100.5 610.5 L 80.5 610.5 L 80.5 590.5 Z" stroke-miterlimit="10" stroke-width="3" stroke-dasharray=""/><path fill="none" stroke="none"/><path fill="none" stroke="none"/><text fill="green" stroke="none" font-family="Raleway" font-size="20px" font-style="normal" font-weight="normal" text-decoration="normal" x="90" y="605" text-anchor="middle" dominant-baseline="alphabetic">1</text><path fill="white" stroke="black" paint-order="fill stroke markers" d=" M 80.5 430.5 L 100.5 430.5 L 100.5 450.5 L 80.5 450.5 L 80.5 430.5 Z" stroke-miterlimit="10" stroke-width="3" stroke-dasharray=""/><path fill="none" stroke="none"/><path fill="none" stroke="none"/><text fill="green" stroke="none" font-family="Raleway" font-size="20px" font-style="normal" font-weight="normal" text-decoration="normal" x="90" y="445" text-anchor="middle" dominant-baseline="alphabetic">0</text><path fill="none" stroke="green" paint-order="fill stroke markers" d=" M 180 70.5 L 200 70.5" stroke-linecap="round" stroke-miterlimit="10" stroke-width="3" stroke-dasharray=""/><path fill="none" stroke="green" paint-order="fill stroke markers" d=" M 180 120.5 L 220 120.5" stroke-linecap="round" stroke-miterlimit="10" stroke-width="3" stroke-dasharray=""/><path fill="none" stroke="green" paint-order="fill stroke markers" d=" M 280 60.5 L 200 60.5" stroke-linecap="round" stroke-miterlimit="10" stroke-width="3" stroke-dasharray=""/><path fill="none" stroke="green" paint-order="fill stroke markers" d=" M 280 80.5 L 220 80.5" stroke-linecap="round" stroke-miterlimit="10" stroke-width="3" stroke-dasharray=""/><path fill="none" stroke="green" paint-order="fill stroke markers" d=" M 320 70.5 L 380 70.5" stroke-linecap="round" stroke-miterlimit="10" stroke-width="3" stroke-dasharray=""/><path fill="none" stroke="green" paint-order="fill stroke markers" d=" M 280 110.5 L 200 110.5" stroke-linecap="round" stroke-miterlimit="10" stroke-width="3" stroke-dasharray=""/><path fill="none" stroke="green" paint-order="fill stroke markers" d=" M 280 130.5 L 220 130.5" stroke-linecap="round" stroke-miterlimit="10" stroke-width="3" stroke-dasharray=""/><path fill="none" stroke="green" paint-order="fill stroke markers" d=" M 310 120.5 L 380 120.5" stroke-linecap="round" stroke-miterlimit="10" stroke-width="3" stroke-dasharray=""/><path fill="none" stroke="green" paint-order="fill stroke markers" d=" M 220.5 120 L 220.5 130" stroke-linecap="round" stroke-miterlimit="10" stroke-width="3" stroke-dasharray=""/><path fill="none" stroke="green" paint-order="fill stroke markers" d=" M 220.5 120 L 220.5 80" stroke-linecap="round" stroke-miterlimit="10" stroke-width="3" stroke-dasharray=""/><path fill="none" stroke="green" paint-order="fill stroke markers" d=" M 200.5 70 L 200.5 60" stroke-linecap="round" stroke-miterlimit="10" stroke-width="3" stroke-dasharray=""/><path fill="none" stroke="green" paint-order="fill stroke markers" d=" M 200.5 70 L 200.5 110" stroke-linecap="round" stroke-miterlimit="10" stroke-width="3" stroke-dasharray=""/><path fill="none" stroke="lightgreen" paint-order="fill stroke markers" d=" M 180 270.5 L 200 270.5" stroke-linecap="round" stroke-miterlimit="10" stroke-width="3" stroke-dasharray=""/><path fill="none" stroke="lightgreen" paint-order="fill stroke markers" d=" M 180 320.5 L 220 320.5" stroke-linecap="round" stroke-miterlimit="10" stroke-width="3" stroke-dasharray=""/><path fill="none" stroke="lightgreen" paint-order="fill stroke markers" d=" M 280 310.5 L 200 310.5" stroke-linecap="round" stroke-miterlimit="10" stroke-width="3" stroke-dasharray=""/><path fill="none" stroke="lightgreen" paint-order="fill stroke markers" d=" M 280 330.5 L 220 330.5" stroke-linecap="round" stroke-miterlimit="10" stroke-width="3" stroke-dasharray=""/><path fill="none" stroke="lightgreen" paint-order="fill stroke markers" d=" M 310 320.5 L 380 320.5" stroke-linecap="round" stroke-miterlimit="10" stroke-width="3" stroke-dasharray=""/><path fill="none" stroke="lightgreen" paint-order="fill stroke markers" d=" M 220.5 320 L 220.5 330" stroke-linecap="round" stroke-miterlimit="10" stroke-width="3" stroke-dasharray=""/><path fill="none" stroke="lightgreen" paint-order="fill stroke markers" d=" M 220.5 320 L 220.5 280" stroke-linecap="round" stroke-miterlimit="10" stroke-width="3" stroke-dasharray=""/><path fill="none" stroke="lightgreen" paint-order="fill stroke markers" d=" M 220 230.5 L 280 230.5" stroke-linecap="round" stroke-miterlimit="10" stroke-width="3" stroke-dasharray=""/><path fill="none" stroke="lightgreen" paint-order="fill stroke markers" d=" M 220.5 230 L 220.5 280" stroke-linecap="round" stroke-miterlimit="10" stroke-width="3" stroke-dasharray=""/><path fill="none" stroke="lightgreen" paint-order="fill stroke markers" d=" M 200.5 270 L 200.5 310" stroke-linecap="round" stroke-miterlimit="10" stroke-width="3" stroke-dasharray=""/><path fill="none" stroke="lightgreen" paint-order="fill stroke markers" d=" M 200.5 270 L 200.5 260" stroke-linecap="round" stroke-miterlimit="10" stroke-width="3" stroke-dasharray=""/><path fill="none" stroke="green" paint-order="fill stroke markers" d=" M 280.5 210.5 L 280.5 210.5" stroke-linecap="round" stroke-miterlimit="10" stroke-width="3" stroke-dasharray=""/><path fill="none" stroke="green" paint-order="fill stroke markers" d=" M 310.5 220 L 310.5 230" stroke-linecap="round" stroke-miterlimit="10" stroke-width="3" stroke-dasharray=""/><path fill="none" stroke="lightgreen" paint-order="fill stroke markers" d=" M 280 260.5 L 200 260.5" stroke-linecap="round" stroke-miterlimit="10" stroke-width="3" stroke-dasharray=""/><path fill="none" stroke="green" paint-order="fill stroke markers" d=" M 280.5 280.5 L 280.5 280.5" stroke-linecap="round" stroke-miterlimit="10" stroke-width="3" stroke-dasharray=""/><path fill="none" stroke="green" paint-order="fill stroke markers" d=" M 310.5 270 L 310.5 250" stroke-linecap="round" stroke-miterlimit="10" stroke-width="3" stroke-dasharray=""/><path fill="none" stroke="lightgreen" paint-order="fill stroke markers" d=" M 250 210.5 L 200 210.5" stroke-linecap="round" stroke-miterlimit="10" stroke-width="3" stroke-dasharray=""/><path fill="none" stroke="lightgreen" paint-order="fill stroke markers" d=" M 250 280.5 L 220 280.5" stroke-linecap="round" stroke-miterlimit="10" stroke-width="3" stroke-dasharray=""/><path fill="none" stroke="lightgreen" paint-order="fill stroke markers" d=" M 200.5 210 L 200.5 260" stroke-linecap="round" stroke-miterlimit="10" stroke-width="3" stroke-dasharray=""/><path fill="none" stroke="green" paint-order="fill stroke markers" d=" M 360 230.5 L 310 230.5" stroke-linecap="round" stroke-miterlimit="10" stroke-width="3" stroke-dasharray=""/><path fill="none" stroke="green" paint-order="fill stroke markers" d=" M 360 250.5 L 310 250.5" stroke-linecap="round" stroke-miterlimit="10" stroke-width="3" stroke-dasharray=""/><path fill="none" stroke="green" paint-order="fill stroke markers" d=" M 390 240.5 L 450 240.5" stroke-linecap="round" stroke-miterlimit="10" stroke-width="3" stroke-dasharray=""/><path fill="none" stroke="green" paint-order="fill stroke markers" d=" M 100 550.5 L 120 550.5" stroke-linecap="round" stroke-miterlimit="10" stroke-width="3" stroke-dasharray=""/><path fill="none" stroke="lightgreen" paint-order="fill stroke markers" d=" M 100 600.5 L 140 600.5" stroke-linecap="round" stroke-miterlimit="10" stroke-width="3" stroke-dasharray=""/><path fill="none" stroke="green" paint-order="fill stroke markers" d=" M 200 590.5 L 120 590.5" stroke-linecap="round" stroke-miterlimit="10" stroke-width="3" stroke-dasharray=""/><path fill="none" stroke="lightgreen" paint-order="fill stroke markers" d=" M 200 610.5 L 140 610.5" stroke-linecap="round" stroke-miterlimit="10" stroke-width="3" stroke-dasharray=""/><path fill="none" stroke="green" paint-order="fill stroke markers" d=" M 230 600.5 L 300 600.5" stroke-linecap="round" stroke-miterlimit="10" stroke-width="3" stroke-dasharray=""/><path fill="none" stroke="lightgreen" paint-order="fill stroke markers" d=" M 140.5 600 L 140.5 610" stroke-linecap="round" stroke-miterlimit="10" stroke-width="3" stroke-dasharray=""/><path fill="none" stroke="lightgreen" paint-order="fill stroke markers" d=" M 140.5 600 L 140.5 560" stroke-linecap="round" stroke-miterlimit="10" stroke-width="3" stroke-dasharray=""/><path fill="none" stroke="lightgreen" paint-order="fill stroke markers" d=" M 140 510.5 L 200 510.5" stroke-linecap="round" stroke-miterlimit="10" stroke-width="3" stroke-dasharray=""/><path fill="none" stroke="lightgreen" paint-order="fill stroke markers" d=" M 140.5 510 L 140.5 560" stroke-linecap="round" stroke-miterlimit="10" stroke-width="3" stroke-dasharray=""/><path fill="none" stroke="green" paint-order="fill stroke markers" d=" M 120.5 550 L 120.5 590" stroke-linecap="round" stroke-miterlimit="10" stroke-width="3" stroke-dasharray=""/><path fill="none" stroke="green" paint-order="fill stroke markers" d=" M 120.5 550 L 120.5 540" stroke-linecap="round" stroke-miterlimit="10" stroke-width="3" stroke-dasharray=""/><path fill="none" stroke="lightgreen" paint-order="fill stroke markers" d=" M 200.5 490.5 L 200.5 490.5" stroke-linecap="round" stroke-miterlimit="10" stroke-width="3" stroke-dasharray=""/><path fill="none" stroke="lightgreen" paint-order="fill stroke markers" d=" M 230.5 500 L 230.5 510" stroke-linecap="round" stroke-miterlimit="10" stroke-width="3" stroke-dasharray=""/><path fill="none" stroke="green" paint-order="fill stroke markers" d=" M 200 540.5 L 120 540.5" stroke-linecap="round" stroke-miterlimit="10" stroke-width="3" stroke-dasharray=""/><path fill="none" stroke="green" paint-order="fill stroke markers" d=" M 200.5 560.5 L 200.5 560.5" stroke-linecap="round" stroke-miterlimit="10" stroke-width="3" stroke-dasharray=""/><path fill="none" stroke="green" paint-order="fill stroke markers" d=" M 230.5 550 L 230.5 530" stroke-linecap="round" stroke-miterlimit="10" stroke-width="3" stroke-dasharray=""/><path fill="none" stroke="green" paint-order="fill stroke markers" d=" M 170 490.5 L 120 490.5" stroke-linecap="round" stroke-miterlimit="10" stroke-width="3" stroke-dasharray=""/><path fill="none" stroke="lightgreen" paint-order="fill stroke markers" d=" M 170 560.5 L 140 560.5" stroke-linecap="round" stroke-miterlimit="10" stroke-width="3" stroke-dasharray=""/><path fill="none" stroke="green" paint-order="fill stroke markers" d=" M 120.5 490 L 120.5 540" stroke-linecap="round" stroke-miterlimit="10" stroke-width="3" stroke-dasharray=""/><path fill="none" stroke="lightgreen" paint-order="fill stroke markers" d=" M 280 510.5 L 230 510.5" stroke-linecap="round" stroke-miterlimit="10" stroke-width="3" stroke-dasharray=""/><path fill="none" stroke="green" paint-order="fill stroke markers" d=" M 280 530.5 L 230 530.5" stroke-linecap="round" stroke-miterlimit="10" stroke-width="3" stroke-dasharray=""/><path fill="none" stroke="lightgreen" paint-order="fill stroke markers" d=" M 310 520.5 L 370 520.5" stroke-linecap="round" stroke-miterlimit="10" stroke-width="3" stroke-dasharray=""/><path fill="none" stroke="green" paint-order="fill stroke markers" d=" M 100 440.5 L 430 440.5" stroke-linecap="round" stroke-miterlimit="10" stroke-width="3" stroke-dasharray=""/><path fill="none" stroke="green" paint-order="fill stroke markers" d=" M 510 480.5 L 430 480.5" stroke-linecap="round" stroke-miterlimit="10" stroke-width="3" stroke-dasharray=""/><path fill="none" stroke="lightgreen" paint-order="fill stroke markers" d=" M 510 500.5 L 450 500.5" stroke-linecap="round" stroke-miterlimit="10" stroke-width="3" stroke-dasharray=""/><path fill="none" stroke="green" paint-order="fill stroke markers" d=" M 540 490.5 L 610 490.5" stroke-linecap="round" stroke-miterlimit="10" stroke-width="3" stroke-dasharray=""/><path fill="none" stroke="lightgreen" paint-order="fill stroke markers" d=" M 450.5 490 L 450.5 500" stroke-linecap="round" stroke-miterlimit="10" stroke-width="3" stroke-dasharray=""/><path fill="none" stroke="lightgreen" paint-order="fill stroke markers" d=" M 450.5 490 L 450.5 450" stroke-linecap="round" stroke-miterlimit="10" stroke-width="3" stroke-dasharray=""/><path fill="none" stroke="lightgreen" paint-order="fill stroke markers" d=" M 450 400.5 L 510 400.5" stroke-linecap="round" stroke-miterlimit="10" stroke-width="3" stroke-dasharray=""/><path fill="none" stroke="lightgreen" paint-order="fill stroke markers" d=" M 450.5 400 L 450.5 450" stroke-linecap="round" stroke-miterlimit="10" stroke-width="3" stroke-dasharray=""/><path fill="none" stroke="green" paint-order="fill stroke markers" d=" M 430.5 440 L 430.5 480" stroke-linecap="round" stroke-miterlimit="10" stroke-width="3" stroke-dasharray=""/><path fill="none" stroke="green" paint-order="fill stroke markers" d=" M 430.5 440 L 430.5 430" stroke-linecap="round" stroke-miterlimit="10" stroke-width="3" stroke-dasharray=""/><path fill="none" stroke="lightgreen" paint-order="fill stroke markers" d=" M 510.5 380.5 L 510.5 380.5" stroke-linecap="round" stroke-miterlimit="10" stroke-width="3" stroke-dasharray=""/><path fill="none" stroke="lightgreen" paint-order="fill stroke markers" d=" M 540.5 390 L 540.5 400" stroke-linecap="round" stroke-miterlimit="10" stroke-width="3" stroke-dasharray=""/><path fill="none" stroke="green" paint-order="fill stroke markers" d=" M 510 430.5 L 430 430.5" stroke-linecap="round" stroke-miterlimit="10" stroke-width="3" stroke-dasharray=""/><path fill="none" stroke="green" paint-order="fill stroke markers" d=" M 510.5 450.5 L 510.5 450.5" stroke-linecap="round" stroke-miterlimit="10" stroke-width="3" stroke-dasharray=""/><path fill="none" stroke="green" paint-order="fill stroke markers" d=" M 540.5 440 L 540.5 420" stroke-linecap="round" stroke-miterlimit="10" stroke-width="3" stroke-dasharray=""/><path fill="none" stroke="green" paint-order="fill stroke markers" d=" M 480 380.5 L 430 380.5" stroke-linecap="round" stroke-miterlimit="10" stroke-width="3" stroke-dasharray=""/><path fill="none" stroke="lightgreen" paint-order="fill stroke markers" d=" M 480 450.5 L 450 450.5" stroke-linecap="round" stroke-miterlimit="10" stroke-width="3" stroke-dasharray=""/><path fill="none" stroke="green" paint-order="fill stroke markers" d=" M 430.5 380 L 430.5 430" stroke-linecap="round" stroke-miterlimit="10" stroke-width="3" stroke-dasharray=""/><path fill="none" stroke="lightgreen" paint-order="fill stroke markers" d=" M 590 400.5 L 540 400.5" stroke-linecap="round" stroke-miterlimit="10" stroke-width="3" stroke-dasharray=""/><path fill="none" stroke="green" paint-order="fill stroke markers" d=" M 590 420.5 L 540 420.5" stroke-linecap="round" stroke-miterlimit="10" stroke-width="3" stroke-dasharray=""/><path fill="none" stroke="lightgreen" paint-order="fill stroke markers" d=" M 620 410.5 L 820 410.5" stroke-linecap="round" stroke-miterlimit="10" stroke-width="3" stroke-dasharray=""/><path fill="none" stroke="lightgreen" paint-order="fill stroke markers" d=" M 370.5 520 L 370.5 490" stroke-linecap="round" stroke-miterlimit="10" stroke-width="3" stroke-dasharray=""/><path fill="none" stroke="lightgreen" paint-order="fill stroke markers" d=" M 370 490.5 L 450 490.5" stroke-linecap="round" stroke-miterlimit="10" stroke-width="3" stroke-dasharray=""/><path fill="none" stroke="green" paint-order="fill stroke markers" d=" M 300.5 600 L 300.5 560" stroke-linecap="round" stroke-miterlimit="10" stroke-width="3" stroke-dasharray=""/><path fill="none" stroke="green" paint-order="fill stroke markers" d=" M 300 560.5 L 650 560.5" stroke-linecap="round" stroke-miterlimit="10" stroke-width="3" stroke-dasharray=""/><path fill="none" stroke="green" paint-order="fill stroke markers" d=" M 610.5 490 L 610.5 540" stroke-linecap="round" stroke-miterlimit="10" stroke-width="3" stroke-dasharray=""/><path fill="none" stroke="green" paint-order="fill stroke markers" d=" M 610 540.5 L 650 540.5" stroke-linecap="round" stroke-miterlimit="10" stroke-width="3" stroke-dasharray=""/><path fill="none" stroke="green" paint-order="fill stroke markers" d=" M 680 550.5 L 830 550.5" stroke-linecap="round" stroke-miterlimit="10" stroke-width="3" stroke-dasharray=""/><path fill="green" stroke="none" paint-order="stroke fill markers" d=" M 183 70 A 3 3 0 1 1 182.99999850000012 69.9970000005 Z"/><path fill="green" stroke="none" paint-order="stroke fill markers" d=" M 183 120 A 3 3 0 1 1 182.99999850000012 119.9970000005 Z"/><path fill="green" stroke="none" paint-order="stroke fill markers" d=" M 283 60 A 3 3 0 1 1 282.9999985000001 59.9970000005 Z"/><path fill="green" stroke="none" paint-order="stroke fill markers" d=" M 283 80 A 3 3 0 1 1 282.9999985000001 79.9970000005 Z"/><path fill="green" stroke="none" paint-order="stroke fill markers" d=" M 323 70 A 3 3 0 1 1 322.9999985000001 69.9970000005 Z"/><path fill="green" stroke="none" paint-order="stroke fill markers" d=" M 283 110 A 3 3 0 1 1 282.9999985000001 109.9970000005 Z"/><path fill="green" stroke="none" paint-order="stroke fill markers" d=" M 283 130 A 3 3 0 1 1 282.9999985000001 129.9970000005 Z"/><path fill="green" stroke="none" paint-order="stroke fill markers" d=" M 313 120 A 3 3 0 1 1 312.9999985000001 119.9970000005 Z"/><path fill="green" stroke="none" paint-order="stroke fill markers" d=" M 223 120 A 3 3 0 1 1 222.99999850000012 119.9970000005 Z"/><path fill="green" stroke="none" paint-order="stroke fill markers" d=" M 223 130 A 3 3 0 1 1 222.99999850000012 129.9970000005 Z"/><path fill="green" stroke="none" paint-order="stroke fill markers" d=" M 223 80 A 3 3 0 1 1 222.99999850000012 79.9970000005 Z"/><path fill="green" stroke="none" paint-order="stroke fill markers" d=" M 203 70 A 3 3 0 1 1 202.99999850000012 69.9970000005 Z"/><path fill="green" stroke="none" paint-order="stroke fill markers" d=" M 203 60 A 3 3 0 1 1 202.99999850000012 59.9970000005 Z"/><path fill="green" stroke="none" paint-order="stroke fill markers" d=" M 203 110 A 3 3 0 1 1 202.99999850000012 109.9970000005 Z"/><path fill="green" stroke="none" paint-order="stroke fill markers" d=" M 383 120 A 3 3 0 1 1 382.9999985000001 119.9970000005 Z"/><path fill="green" stroke="none" paint-order="stroke fill markers" d=" M 383 70 A 3 3 0 1 1 382.9999985000001 69.9970000005 Z"/><path fill="green" stroke="none" paint-order="stroke fill markers" d=" M 183 270 A 3 3 0 1 1 182.99999850000012 269.9970000005 Z"/><path fill="green" stroke="none" paint-order="stroke fill markers" d=" M 183 320 A 3 3 0 1 1 182.99999850000012 319.9970000005 Z"/><path fill="green" stroke="none" paint-order="stroke fill markers" d=" M 283 310 A 3 3 0 1 1 282.9999985000001 309.9970000005 Z"/><path fill="green" stroke="none" paint-order="stroke fill markers" d=" M 283 330 A 3 3 0 1 1 282.9999985000001 329.9970000005 Z"/><path fill="green" stroke="none" paint-order="stroke fill markers" d=" M 313 320 A 3 3 0 1 1 312.9999985000001 319.9970000005 Z"/><path fill="lightgreen" stroke="none" paint-order="stroke fill markers" d=" M 223 320 A 3 3 0 1 1 222.99999850000012 319.9970000005 Z"/><path fill="lightgreen" stroke="none" paint-order="stroke fill markers" d=" M 223 330 A 3 3 0 1 1 222.99999850000012 329.9970000005 Z"/><path fill="lightgreen" stroke="none" paint-order="stroke fill markers" d=" M 223 230 A 3 3 0 1 1 222.99999850000012 229.9970000005 Z"/><path fill="lightgreen" stroke="none" paint-order="stroke fill markers" d=" M 203 270 A 3 3 0 1 1 202.99999850000012 269.9970000005 Z"/><path fill="lightgreen" stroke="none" paint-order="stroke fill markers" d=" M 203 310 A 3 3 0 1 1 202.99999850000012 309.9970000005 Z"/><path fill="lightgreen" stroke="none" paint-order="stroke fill markers" d=" M 383 320 A 3 3 0 1 1 382.9999985000001 319.9970000005 Z"/><path fill="green" stroke="none" paint-order="stroke fill markers" d=" M 283 210 A 3 3 0 1 1 282.9999985000001 209.9970000005 Z"/><path fill="green" stroke="none" paint-order="stroke fill markers" d=" M 283 230 A 3 3 0 1 1 282.9999985000001 229.9970000005 Z"/><path fill="green" stroke="none" paint-order="stroke fill markers" d=" M 313 220 A 3 3 0 1 1 312.9999985000001 219.9970000005 Z"/><path fill="green" stroke="none" paint-order="stroke fill markers" d=" M 283 260 A 3 3 0 1 1 282.9999985000001 259.9970000005 Z"/><path fill="green" stroke="none" paint-order="stroke fill markers" d=" M 283 280 A 3 3 0 1 1 282.9999985000001 279.9970000005 Z"/><path fill="green" stroke="none" paint-order="stroke fill markers" d=" M 313 270 A 3 3 0 1 1 312.9999985000001 269.9970000005 Z"/><path fill="green" stroke="none" paint-order="stroke fill markers" d=" M 253 210 A 3 3 0 1 1 252.99999850000012 209.9970000005 Z"/><path fill="green" stroke="none" paint-order="stroke fill markers" d=" M 283 210 A 3 3 0 1 1 282.9999985000001 209.9970000005 Z"/><path fill="green" stroke="none" paint-order="stroke fill markers" d=" M 253 280 A 3 3 0 1 1 252.99999850000012 279.9970000005 Z"/><path fill="green" stroke="none" paint-order="stroke fill markers" d=" M 283 280 A 3 3 0 1 1 282.9999985000001 279.9970000005 Z"/><path fill="lightgreen" stroke="none" paint-order="stroke fill markers" d=" M 203 210 A 3 3 0 1 1 202.99999850000012 209.9970000005 Z"/><path fill="lightgreen" stroke="none" paint-order="stroke fill markers" d=" M 203 260 A 3 3 0 1 1 202.99999850000012 259.9970000005 Z"/><path fill="lightgreen" stroke="none" paint-order="stroke fill markers" d=" M 223 280 A 3 3 0 1 1 222.99999850000012 279.9970000005 Z"/><path fill="green" stroke="none" paint-order="stroke fill markers" d=" M 363 230 A 3 3 0 1 1 362.9999985000001 229.9970000005 Z"/><path fill="green" stroke="none" paint-order="stroke fill markers" d=" M 363 250 A 3 3 0 1 1 362.9999985000001 249.9970000005 Z"/><path fill="green" stroke="none" paint-order="stroke fill markers" d=" M 393 240 A 3 3 0 1 1 392.9999985000001 239.9970000005 Z"/><path fill="green" stroke="none" paint-order="stroke fill markers" d=" M 313 230 A 3 3 0 1 1 312.9999985000001 229.9970000005 Z"/><path fill="green" stroke="none" paint-order="stroke fill markers" d=" M 313 250 A 3 3 0 1 1 312.9999985000001 249.9970000005 Z"/><path fill="green" stroke="none" paint-order="stroke fill markers" d=" M 453 240 A 3 3 0 1 1 452.9999985000001 239.9970000005 Z"/><path fill="green" stroke="none" paint-order="stroke fill markers" d=" M 103 550 A 3 3 0 1 1 102.99999850000013 549.9970000005 Z"/><path fill="green" stroke="none" paint-order="stroke fill markers" d=" M 103 600 A 3 3 0 1 1 102.99999850000013 599.9970000005 Z"/><path fill="green" stroke="none" paint-order="stroke fill markers" d=" M 203 590 A 3 3 0 1 1 202.99999850000012 589.9970000005 Z"/><path fill="green" stroke="none" paint-order="stroke fill markers" d=" M 203 610 A 3 3 0 1 1 202.99999850000012 609.9970000005 Z"/><path fill="green" stroke="none" paint-order="stroke fill markers" d=" M 233 600 A 3 3 0 1 1 232.99999850000012 599.9970000005 Z"/><path fill="lightgreen" stroke="none" paint-order="stroke fill markers" d=" M 143 600 A 3 3 0 1 1 142.99999850000012 599.9970000005 Z"/><path fill="lightgreen" stroke="none" paint-order="stroke fill markers" d=" M 143 610 A 3 3 0 1 1 142.99999850000012 609.9970000005 Z"/><path fill="lightgreen" stroke="none" paint-order="stroke fill markers" d=" M 143 510 A 3 3 0 1 1 142.99999850000012 509.9970000005 Z"/><path fill="green" stroke="none" paint-order="stroke fill markers" d=" M 123 550 A 3 3 0 1 1 122.99999850000013 549.9970000005 Z"/><path fill="green" stroke="none" paint-order="stroke fill markers" d=" M 123 590 A 3 3 0 1 1 122.99999850000013 589.9970000005 Z"/><path fill="green" stroke="none" paint-order="stroke fill markers" d=" M 303 600 A 3 3 0 1 1 302.9999985000001 599.9970000005 Z"/><path fill="green" stroke="none" paint-order="stroke fill markers" d=" M 203 490 A 3 3 0 1 1 202.99999850000012 489.9970000005 Z"/><path fill="green" stroke="none" paint-order="stroke fill markers" d=" M 203 510 A 3 3 0 1 1 202.99999850000012 509.9970000005 Z"/><path fill="green" stroke="none" paint-order="stroke fill markers" d=" M 233 500 A 3 3 0 1 1 232.99999850000012 499.9970000005 Z"/><path fill="green" stroke="none" paint-order="stroke fill markers" d=" M 203 540 A 3 3 0 1 1 202.99999850000012 539.9970000005 Z"/><path fill="green" stroke="none" paint-order="stroke fill markers" d=" M 203 560 A 3 3 0 1 1 202.99999850000012 559.9970000005 Z"/><path fill="green" stroke="none" paint-order="stroke fill markers" d=" M 233 550 A 3 3 0 1 1 232.99999850000012 549.9970000005 Z"/><path fill="green" stroke="none" paint-order="stroke fill markers" d=" M 173 490 A 3 3 0 1 1 172.99999850000012 489.9970000005 Z"/><path fill="green" stroke="none" paint-order="stroke fill markers" d=" M 203 490 A 3 3 0 1 1 202.99999850000012 489.9970000005 Z"/><path fill="green" stroke="none" paint-order="stroke fill markers" d=" M 173 560 A 3 3 0 1 1 172.99999850000012 559.9970000005 Z"/><path fill="green" stroke="none" paint-order="stroke fill markers" d=" M 203 560 A 3 3 0 1 1 202.99999850000012 559.9970000005 Z"/><path fill="green" stroke="none" paint-order="stroke fill markers" d=" M 123 490 A 3 3 0 1 1 122.99999850000013 489.9970000005 Z"/><path fill="green" stroke="none" paint-order="stroke fill markers" d=" M 123 540 A 3 3 0 1 1 122.99999850000013 539.9970000005 Z"/><path fill="lightgreen" stroke="none" paint-order="stroke fill markers" d=" M 143 560 A 3 3 0 1 1 142.99999850000012 559.9970000005 Z"/><path fill="green" stroke="none" paint-order="stroke fill markers" d=" M 283 510 A 3 3 0 1 1 282.9999985000001 509.9970000005 Z"/><path fill="green" stroke="none" paint-order="stroke fill markers" d=" M 283 530 A 3 3 0 1 1 282.9999985000001 529.9970000005 Z"/><path fill="green" stroke="none" paint-order="stroke fill markers" d=" M 313 520 A 3 3 0 1 1 312.9999985000001 519.9970000005 Z"/><path fill="lightgreen" stroke="none" paint-order="stroke fill markers" d=" M 233 510 A 3 3 0 1 1 232.99999850000012 509.9970000005 Z"/><path fill="green" stroke="none" paint-order="stroke fill markers" d=" M 233 530 A 3 3 0 1 1 232.99999850000012 529.9970000005 Z"/><path fill="lightgreen" stroke="none" paint-order="stroke fill markers" d=" M 373 520 A 3 3 0 1 1 372.9999985000001 519.9970000005 Z"/><path fill="green" stroke="none" paint-order="stroke fill markers" d=" M 103 440 A 3 3 0 1 1 102.99999850000013 439.9970000005 Z"/><path fill="green" stroke="none" paint-order="stroke fill markers" d=" M 513 480 A 3 3 0 1 1 512.9999985000002 479.9970000005 Z"/><path fill="green" stroke="none" paint-order="stroke fill markers" d=" M 513 500 A 3 3 0 1 1 512.9999985000002 499.9970000005 Z"/><path fill="green" stroke="none" paint-order="stroke fill markers" d=" M 543 490 A 3 3 0 1 1 542.9999985000002 489.9970000005 Z"/><path fill="lightgreen" stroke="none" paint-order="stroke fill markers" d=" M 453 490 A 3 3 0 1 1 452.9999985000001 489.9970000005 Z"/><path fill="lightgreen" stroke="none" paint-order="stroke fill markers" d=" M 453 500 A 3 3 0 1 1 452.9999985000001 499.9970000005 Z"/><path fill="lightgreen" stroke="none" paint-order="stroke fill markers" d=" M 453 400 A 3 3 0 1 1 452.9999985000001 399.9970000005 Z"/><path fill="green" stroke="none" paint-order="stroke fill markers" d=" M 433 440 A 3 3 0 1 1 432.9999985000001 439.9970000005 Z"/><path fill="green" stroke="none" paint-order="stroke fill markers" d=" M 433 480 A 3 3 0 1 1 432.9999985000001 479.9970000005 Z"/><path fill="green" stroke="none" paint-order="stroke fill markers" d=" M 613 490 A 3 3 0 1 1 612.9999985000002 489.9970000005 Z"/><path fill="green" stroke="none" paint-order="stroke fill markers" d=" M 513 380 A 3 3 0 1 1 512.9999985000002 379.9970000005 Z"/><path fill="green" stroke="none" paint-order="stroke fill markers" d=" M 513 400 A 3 3 0 1 1 512.9999985000002 399.9970000005 Z"/><path fill="green" stroke="none" paint-order="stroke fill markers" d=" M 543 390 A 3 3 0 1 1 542.9999985000002 389.9970000005 Z"/><path fill="green" stroke="none" paint-order="stroke fill markers" d=" M 513 430 A 3 3 0 1 1 512.9999985000002 429.9970000005 Z"/><path fill="green" stroke="none" paint-order="stroke fill markers" d=" M 513 450 A 3 3 0 1 1 512.9999985000002 449.9970000005 Z"/><path fill="green" stroke="none" paint-order="stroke fill markers" d=" M 543 440 A 3 3 0 1 1 542.9999985000002 439.9970000005 Z"/><path fill="green" stroke="none" paint-order="stroke fill markers" d=" M 483 380 A 3 3 0 1 1 482.9999985000001 379.9970000005 Z"/><path fill="green" stroke="none" paint-order="stroke fill markers" d=" M 513 380 A 3 3 0 1 1 512.9999985000002 379.9970000005 Z"/><path fill="green" stroke="none" paint-order="stroke fill markers" d=" M 483 450 A 3 3 0 1 1 482.9999985000001 449.9970000005 Z"/><path fill="green" stroke="none" paint-order="stroke fill markers" d=" M 513 450 A 3 3 0 1 1 512.9999985000002 449.9970000005 Z"/><path fill="green" stroke="none" paint-order="stroke fill markers" d=" M 433 380 A 3 3 0 1 1 432.9999985000001 379.9970000005 Z"/><path fill="green" stroke="none" paint-order="stroke fill markers" d=" M 433 430 A 3 3 0 1 1 432.9999985000001 429.9970000005 Z"/><path fill="lightgreen" stroke="none" paint-order="stroke fill markers" d=" M 453 450 A 3 3 0 1 1 452.9999985000001 449.9970000005 Z"/><path fill="green" stroke="none" paint-order="stroke fill markers" d=" M 593 400 A 3 3 0 1 1 592.9999985000002 399.9970000005 Z"/><path fill="green" stroke="none" paint-order="stroke fill markers" d=" M 593 420 A 3 3 0 1 1 592.9999985000002 419.9970000005 Z"/><path fill="green" stroke="none" paint-order="stroke fill markers" d=" M 623 410 A 3 3 0 1 1 622.9999985000002 409.9970000005 Z"/><path fill="lightgreen" stroke="none" paint-order="stroke fill markers" d=" M 543 400 A 3 3 0 1 1 542.9999985000002 399.9970000005 Z"/><path fill="green" stroke="none" paint-order="stroke fill markers" d=" M 543 420 A 3 3 0 1 1 542.9999985000002 419.9970000005 Z"/><path fill="lightgreen" stroke="none" paint-order="stroke fill markers" d=" M 823 410 A 3 3 0 1 1 822.9999985000002 409.9970000005 Z"/><path fill="lightgreen" stroke="none" paint-order="stroke fill markers" d=" M 373 490 A 3 3 0 1 1 372.9999985000001 489.9970000005 Z"/><path fill="green" stroke="none" paint-order="stroke fill markers" d=" M 653 540 A 3 3 0 1 1 652.9999985000002 539.9970000005 Z"/><path fill="green" stroke="none" paint-order="stroke fill markers" d=" M 653 560 A 3 3 0 1 1 652.9999985000002 559.9970000005 Z"/><path fill="green" stroke="none" paint-order="stroke fill markers" d=" M 683 550 A 3 3 0 1 1 682.9999985000002 549.9970000005 Z"/><path fill="green" stroke="none" paint-order="stroke fill markers" d=" M 303 560 A 3 3 0 1 1 302.9999985000001 559.9970000005 Z"/><path fill="green" stroke="none" paint-order="stroke fill markers" d=" M 613 540 A 3 3 0 1 1 612.9999985000002 539.9970000005 Z"/><path fill="green" stroke="none" paint-order="stroke fill markers" d=" M 833 550 A 3 3 0 1 1 832.9999985000002 549.9970000005 Z"/></g></svg>